<svg width="122" height="35" viewBox="0 0 122 35" fill="none" xmlns="http://www.w3.org/2000/svg">
<path d="M19.3763 18.0076H15.1263V23.8076H10.1263V8.18262H20.3763L19.7513 12.1826H15.1263V14.2826H19.3763V18.0076Z" fill="#F45438"/>
<path d="M31.8694 23.8076H21.8694V8.18262H26.8694V19.8076H31.8694V23.8076Z" fill="#2399F1"/>
<path d="M33.2464 23.8076V8.18262H38.2464V23.8076H33.2464Z" fill="#38BA24"/>
<path d="M48.9915 20.0326H45.7415V23.8076H40.7415V8.18262H48.6165C52.1999 8.18262 53.9915 10.1076 53.9915 13.9576C53.9915 16.0743 53.5249 17.641 52.5915 18.6576C52.2415 19.041 51.7582 19.366 51.1415 19.6326C50.5248 19.8993 49.8082 20.0326 48.9915 20.0326ZM45.7415 12.1826V16.0326H46.8915C47.4915 16.0326 47.9248 15.9743 48.1915 15.8576C48.4748 15.7243 48.6165 15.4326 48.6165 14.9826V13.2326C48.6165 12.7826 48.4748 12.4993 48.1915 12.3826C47.9248 12.2493 47.4915 12.1826 46.8915 12.1826H45.7415Z" fill="#F054CE"/>
<path d="M54.8626 18.8076V16.1076C54.8626 15.6576 54.9959 15.3743 55.2626 15.2576C55.5459 15.1243 55.9876 15.0576 56.5876 15.0576H62.3626V17.7576C62.3626 18.2076 62.2209 18.4993 61.9376 18.6326C61.6709 18.7493 61.2376 18.8076 60.6376 18.8076H54.8626Z" fill="#CED0DA"/>
<path d="M73.4778 18.0076H69.2278V23.8076H64.2278V8.18262H74.4778L73.8528 12.1826H69.2278V14.2826H73.4778V18.0076Z" fill="#9D8FE3"/>
<path d="M85.971 23.8076H75.971V8.18262H80.971V19.8076H85.971V23.8076Z" fill="#FF7800"/>
<path d="M86.598 16.0076C86.598 13.1576 87.1313 11.0826 88.198 9.78262C89.2646 8.46595 91.1896 7.80762 93.973 7.80762C96.7563 7.80762 98.6813 8.46595 99.748 9.78262C100.815 11.0826 101.348 13.1576 101.348 16.0076C101.348 17.4243 101.231 18.616 100.998 19.5826C100.781 20.5493 100.398 21.391 99.848 22.1076C99.298 22.8243 98.5396 23.3493 97.573 23.6826C96.6063 24.016 95.4063 24.1826 93.973 24.1826C92.5396 24.1826 91.3396 24.016 90.373 23.6826C89.4063 23.3493 88.648 22.8243 88.098 22.1076C87.548 21.391 87.1563 20.5493 86.923 19.5826C86.7063 18.616 86.598 17.4243 86.598 16.0076ZM91.973 13.4076V19.9076H94.048C94.7313 19.9076 95.223 19.8326 95.523 19.6826C95.8396 19.516 95.998 19.1493 95.998 18.5826V12.0826H93.898C93.2313 12.0826 92.7396 12.166 92.423 12.3326C92.123 12.4826 91.973 12.841 91.973 13.4076Z" fill="#FFD702"/>
<path d="M111.345 20.0326H108.095V23.8076H103.095V8.18262H110.97C114.553 8.18262 116.345 10.1076 116.345 13.9576C116.345 16.0743 115.878 17.641 114.945 18.6576C114.595 19.041 114.112 19.366 113.495 19.6326C112.878 19.8993 112.162 20.0326 111.345 20.0326ZM108.095 12.1826V16.0326H109.245C109.845 16.0326 110.278 15.9743 110.545 15.8576C110.828 15.7243 110.97 15.4326 110.97 14.9826V13.2326C110.97 12.7826 110.828 12.4993 110.545 12.3826C110.278 12.2493 109.845 12.1826 109.245 12.1826H108.095Z" fill="#19A5D6"/>
</svg>
